<?xml version="1.0" encoding="UTF-8"?>
<svg id="Capa_1" xmlns="http://www.w3.org/2000/svg" version="1.1" viewBox="0 0 340 209">
  <!-- Generator: Adobe Illustrator 29.0.1, SVG Export Plug-In . SVG Version: 2.1.0 Build 192)  -->
  <path d="M175.7,92.6c0,2.4-.5,4.7-1.4,6.7s-2.2,3.8-3.8,5.2c-1.6,1.4-3.5,2.6-5.6,3.4-2.2.8-4.4,1.2-6.9,1.2h-3c-2.4,0-4.7-.4-6.9-1.2-2.2-.8-4-1.9-5.6-3.4-1.6-1.4-2.9-3.2-3.8-5.2-.9-2-1.4-4.3-1.4-6.7v-.2c0-2.4.4-4.5,1.3-6.5.9-2,2-3.7,3.5-5.1-1.9-1.1-3.4-2.7-4.5-4.6-1.1-2-1.6-4.1-1.6-6.5s.5-4.1,1.4-5.9c.9-1.8,2.1-3.3,3.7-4.5-1.9-1.6-3.4-3.6-4.5-5.9-1.1-2.3-1.6-4.8-1.6-7.6v-4.5c0-2.4.4-4.7,1.4-6.9.9-2.2,2.2-4,3.8-5.6s3.5-2.9,5.6-3.8c2.2-.9,4.4-1.4,6.9-1.4h3c2.9,0,5.6.7,8.1,2s4.6,3.1,6.2,5.3l3.9-6.1h2.4v21c0,2.4-.5,4.7-1.4,6.9s-2.2,4-3.8,5.6-3.5,2.9-5.6,3.8c-2.2.9-4.4,1.4-6.9,1.4h-10.5c-.8,0-1.6.2-2.4.5-.7.3-1.4.7-2,1.3s-1,1.2-1.3,2c-.3.7-.5,1.5-.5,2.4s.2,1.6.5,2.4c.3.7.7,1.4,1.3,2,.6.5,1.3,1,2,1.3s1.5.5,2.4.5h9.9c2.4,0,4.7.4,6.9,1.2,2.2.8,4,1.9,5.6,3.4,1.6,1.4,2.9,3.2,3.8,5.2.9,2,1.4,4.3,1.4,6.7v.2h0ZM169.1,40.9c0-1.4-.3-2.8-.8-4.1s-1.3-2.4-2.3-3.4c-.9-.9-2.1-1.7-3.4-2.2-1.3-.5-2.6-.8-4.1-.8h-6c-1.5,0-2.8.3-4.1.8s-2.4,1.3-3.3,2.2c-.9.9-1.7,2.1-2.2,3.4-.5,1.3-.8,2.6-.8,4.1v5.3c0,1.4.3,2.8.8,4.1s1.3,2.4,2.2,3.3,2,1.7,3.3,2.2,2.7.8,4.1.8h6c1.4,0,2.8-.3,4.1-.8s2.4-1.3,3.4-2.2,1.7-2,2.3-3.3c.5-1.3.8-2.7.8-4.1v-5.3ZM168.9,92c0-1.4-.3-2.8-.8-3.9s-1.3-2.1-2.2-2.9-2.1-1.4-3.3-1.8c-1.3-.4-2.6-.6-4.1-.6h-3.7c-1.4,0-2.8.2-4.1.6s-2.4,1-3.3,1.8c-.9.8-1.7,1.7-2.2,2.9-.5,1.2-.8,2.5-.8,3.9v.9c0,1.4.3,2.7.8,3.9.5,1.1,1.3,2.1,2.2,2.9s2,1.4,3.3,1.9c1.3.4,2.7.6,4.1.6h3.7c1.4,0,2.8-.2,4.1-.6s2.4-1.1,3.3-1.9c.9-.8,1.7-1.7,2.2-2.9.5-1.1.8-2.4.8-3.9v-.9Z"/>
  <path d="M120.5,68.5c0,2.4-.5,4.7-1.4,6.9-.9,2.2-2.2,4-3.8,5.6-1.6,1.6-3.5,2.9-5.6,3.8-2.2.9-4.4,1.4-6.9,1.4h-4.8c-2.4,0-4.7-.5-6.9-1.4-2.2-.9-4-2.2-5.6-3.8-1.6-1.6-2.9-3.5-3.8-5.6-.9-2.2-1.4-4.4-1.4-6.9v-27.2c0-2.4.5-4.7,1.4-6.9s2.2-4,3.8-5.6c1.6-1.6,3.5-2.9,5.6-3.8,2.2-.9,4.4-1.4,6.9-1.4h4.8c2.4,0,4.7.5,6.9,1.4,2.2.9,4,2.2,5.6,3.8,1.6,1.6,2.9,3.5,3.8,5.6.9,2.2,1.4,4.4,1.4,6.9v27.2ZM113.3,40.9c0-1.4-.3-2.8-.8-4.1s-1.3-2.4-2.2-3.4c-.9-.9-2.1-1.7-3.3-2.2-1.3-.5-2.6-.8-4.1-.8h-4.8c-1.4,0-2.8.3-4.1.8-1.3.5-2.4,1.3-3.3,2.2s-1.7,2.1-2.2,3.4c-.5,1.3-.8,2.6-.8,4.1v28c0,1.4.3,2.8.8,4.1.5,1.3,1.3,2.4,2.2,3.3s2,1.7,3.3,2.2,2.7.8,4.1.8h4.8c1.4,0,2.8-.3,4.1-.8,1.3-.5,2.4-1.3,3.3-2.2.9-.9,1.7-2,2.2-3.3s.8-2.7.8-4.1v-28Z"/>
  <path d="M57.3,85V.7h7.2v84.3h-7.2Z"/>
  <path d="M41.6,68.5c0,2.4-.5,4.7-1.4,6.9-.9,2.2-2.2,4-3.8,5.6s-3.5,2.9-5.6,3.8c-2.2.9-4.4,1.4-6.9,1.4h-4.8c-2.4,0-4.7-.5-6.9-1.4s-4-2.2-5.6-3.8c-1.6-1.6-2.9-3.5-3.8-5.6-.9-2.2-1.4-4.4-1.4-6.9V.7h7.2v29.2c1.6-2,3.6-3.5,5.9-4.6s4.8-1.6,7.5-1.6h1.8c2.4,0,4.7.5,6.9,1.4s4,2.2,5.6,3.8c1.6,1.6,2.9,3.5,3.8,5.6.9,2.2,1.4,4.4,1.4,6.9v27.2h.1ZM34.4,40.9c0-1.4-.3-2.8-.8-4.1s-1.3-2.4-2.2-3.4-2.1-1.7-3.4-2.2-2.6-.8-4.1-.8h-4.8c-1.4,0-2.8.3-4.1.8-1.3.5-2.4,1.3-3.3,2.2-.9.9-1.7,2.1-2.2,3.4-.5,1.3-.8,2.6-.8,4.1v28c0,1.4.3,2.8.8,4.1.5,1.3,1.3,2.4,2.2,3.3s2,1.7,3.3,2.2c1.3.5,2.7.8,4.1.8h4.8c1.4,0,2.8-.3,4.1-.8,1.3-.5,2.4-1.3,3.4-2.2.9-.9,1.7-2,2.2-3.3s.8-2.7.8-4.1v-28Z"/>
</svg>