<?xml version="1.0" encoding="UTF-8"?>
<svg id="Capa_1" xmlns="http://www.w3.org/2000/svg" version="1.1" viewBox="0 0 426.5 209">
  <!-- Generator: Adobe Illustrator 29.3.0, SVG Export Plug-In . SVG Version: 2.1.0 Build 146)  -->
  <path d="M243.7,84.3l-4-6c-1.6,2.2-3.7,3.9-6.2,5.2-2.5,1.3-5.2,1.9-8.1,1.9h-1.8c-2.4,0-4.7-.5-6.9-1.4-2.2-.9-4-2.2-5.6-3.8-1.6-1.6-2.9-3.5-3.8-5.6-.9-2.2-1.4-4.4-1.4-6.9v-.6c0-2.4.5-4.7,1.4-6.9.9-2.2,2.2-4,3.8-5.6,1.6-1.6,3.5-2.9,5.6-3.8,2.2-.9,4.4-1.4,6.9-1.4h15.3v-9.3c0-1.4-.3-2.8-.8-4.1-.5-1.3-1.3-2.4-2.2-3.4-.9-.9-2.1-1.7-3.3-2.2-1.3-.5-2.6-.8-4.1-.8h-4.2c-1.4,0-2.8.3-4.1.8-1.3.5-2.4,1.3-3.3,2.2-.9.9-1.7,2.1-2.2,3.4-.5,1.3-.8,2.6-.8,4.1v2.2l-7.2-1.2v-.6c0-2.4.4-4.7,1.4-6.9.9-2.2,2.2-4,3.8-5.6,1.6-1.6,3.5-2.9,5.6-3.8,2.2-.9,4.4-1.4,6.9-1.4h4.2c2.4,0,4.7.5,6.9,1.4,2.2.9,4,2.2,5.6,3.8,1.6,1.6,2.9,3.5,3.8,5.6.9,2.2,1.4,4.4,1.4,6.9v43.7h-2.4ZM238.9,55.1h-15.3c-1.4,0-2.8.3-4.1.8-1.3.5-2.4,1.3-3.3,2.3-.9.9-1.7,2.1-2.2,3.4-.5,1.3-.8,2.6-.8,4.1v2.5c0,1.4.3,2.8.8,4.1.5,1.3,1.3,2.4,2.2,3.3.9.9,2,1.7,3.3,2.2,1.3.5,2.7.8,4.1.8h4.8c1.4,0,2.8-.3,4.1-.8,1.3-.5,2.4-1.3,3.3-2.2.9-.9,1.7-2,2.2-3.3.5-1.3.8-2.7.8-4.1v-13ZM184.2,84.3v-44.1c0-1.4-.3-2.8-.8-4.1-.5-1.3-1.3-2.4-2.2-3.4-.9-.9-2.1-1.7-3.4-2.2-1.3-.5-2.6-.8-4.1-.8h-4.8c-1.4,0-2.8.3-4.1.8-1.3.5-2.4,1.3-3.3,2.2-.9.9-1.7,2.1-2.2,3.4-.5,1.3-.8,2.6-.8,4.1v44.1h-7.2V0h7.2v29.2c1.6-2,3.6-3.5,5.9-4.6,2.3-1.1,4.8-1.6,7.5-1.6h1.8c2.4,0,4.7.5,6.9,1.4,2.2.9,4,2.2,5.6,3.8,1.6,1.6,2.9,3.5,3.8,5.6.9,2.2,1.4,4.4,1.4,6.9v43.7h-7.2ZM136.8,67.8c0,2.4-.5,4.7-1.4,6.9-.9,2.2-2.2,4-3.8,5.6-1.6,1.6-3.5,2.9-5.6,3.8-2.2.9-4.4,1.4-6.9,1.4h-4.8c-2.4,0-4.7-.5-6.9-1.4-2.2-.9-4-2.2-5.6-3.8-1.6-1.6-2.9-3.5-3.8-5.6-.9-2.2-1.4-4.4-1.4-6.9v-27.2c0-2.4.5-4.7,1.4-6.9.9-2.2,2.2-4,3.8-5.6,1.6-1.6,3.5-2.9,5.6-3.8,2.2-.9,4.4-1.4,6.9-1.4h4.8c2.4,0,4.7.5,6.9,1.4,2.2.9,4,2.2,5.6,3.8,1.6,1.6,2.9,3.5,3.8,5.6.9,2.2,1.4,4.4,1.4,6.9v2.4l-7.2,1.2v-4c0-1.4-.3-2.8-.8-4.1-.5-1.3-1.3-2.4-2.2-3.4-.9-.9-2.1-1.7-3.4-2.2-1.3-.5-2.6-.8-4.1-.8h-4.8c-1.4,0-2.8.3-4.1.8-1.3.5-2.4,1.3-3.3,2.2-.9.9-1.7,2.1-2.2,3.4-.5,1.3-.8,2.6-.8,4.1v28c0,1.4.3,2.8.8,4.1.5,1.3,1.3,2.4,2.2,3.3.9.9,2,1.7,3.3,2.2,1.3.5,2.7.8,4.1.8h4.8c1.5,0,2.8-.3,4.1-.8,1.3-.5,2.4-1.3,3.4-2.2.9-.9,1.7-2,2.2-3.3.5-1.3.8-2.7.8-4.1v-4l7.2,1.2v2.4ZM82.1,67.8c0,2.4-.5,4.7-1.4,6.9-.9,2.2-2.2,4-3.8,5.6-1.6,1.6-3.5,2.9-5.6,3.8-2.2.9-4.4,1.4-6.9,1.4h-4.8c-2.4,0-4.7-.5-6.9-1.4-2.2-.9-4-2.2-5.6-3.8-1.6-1.6-2.9-3.5-3.8-5.6-.9-2.2-1.4-4.4-1.4-6.9v-27.2c0-2.4.5-4.7,1.4-6.9.9-2.2,2.2-4,3.8-5.6,1.6-1.6,3.5-2.9,5.6-3.8,2.2-.9,4.4-1.4,6.9-1.4h4.8c2.4,0,4.7.5,6.9,1.4,2.2.9,4,2.2,5.6,3.8,1.6,1.6,2.9,3.5,3.8,5.6.9,2.2,1.4,4.4,1.4,6.9v14.2h-33v13.4c0,1.4.3,2.8.8,4.1.5,1.3,1.3,2.4,2.2,3.3.9.9,2,1.7,3.3,2.2,1.3.5,2.7.8,4.1.8h4.8c1.4,0,2.8-.3,4.1-.8,1.3-.5,2.4-1.3,3.4-2.2s1.7-2,2.2-3.3c.5-1.3.8-2.7.8-4.1v-4l7.2,1.2v2.4ZM74.9,40.2c0-1.4-.3-2.8-.8-4.1-.5-1.3-1.3-2.4-2.2-3.4-.9-.9-2.1-1.7-3.4-2.2-1.3-.5-2.6-.8-4.1-.8h-4.8c-1.4,0-2.8.3-4.1.8-1.3.5-2.4,1.3-3.3,2.2-.9.9-1.7,2.1-2.2,3.4-.5,1.3-.8,2.6-.8,4.1v8.9h25.7v-8.9ZM28,6.9c-1.2,0-2.4.2-3.4.7-1,.4-1.9,1-2.7,1.8-.8.8-1.4,1.7-1.9,2.8-.4,1.1-.6,2.2-.6,3.4v8.5h14v6.9h-14v53.3h-7.2V31H1.3v-6.9h10.9v-8.2c0-2.2.4-4.3,1.2-6.2.8-2,2-3.7,3.4-5.1,1.4-1.4,3.1-2.6,5.1-3.4C23.8.4,25.8,0,28,0h6.6v6.9h-6.6Z"/>
</svg>