<?xml version="1.0" encoding="UTF-8"?>
<svg id="Capa_1" xmlns="http://www.w3.org/2000/svg" version="1.1" viewBox="0 0 426.5 209">
  <!-- Generator: Adobe Illustrator 29.3.0, SVG Export Plug-In . SVG Version: 2.1.0 Build 146)  -->
  <path d="M426.5,69.7c0,2.4-.5,4.7-1.5,6.7-1,2-2.3,3.7-4,5.2-1.7,1.4-3.6,2.6-5.9,3.4-2.2.8-4.5,1.2-6.9,1.2h-4.8c-2.4,0-4.8-.5-7-1.4-2.2-.9-4.1-2.2-5.8-3.8-1.6-1.6-3-3.5-4-5.6-1-2.2-1.5-4.4-1.5-6.9v-2.4l7.2-1.2v4c0,1.4.3,2.8.9,4.1.6,1.3,1.4,2.4,2.5,3.3,1,.9,2.2,1.7,3.5,2.2,1.3.5,2.7.8,4.2.8h4.8c1.4,0,2.8-.2,4.2-.6s2.5-1,3.5-1.8c1.1-.8,1.9-1.8,2.5-2.9.6-1.1.9-2.4.9-3.9,0-2.2-.5-3.9-1.4-5.3s-2.2-2.5-3.8-3.4c-1.5-.9-3.3-1.7-5.3-2.3-2-.6-4-1.2-6.1-1.8-2.1-.6-4.1-1.3-6.1-2.1-2-.8-3.7-1.8-5.3-3.1-1.5-1.3-2.8-2.9-3.7-4.8-.9-1.9-1.4-4.3-1.4-7.2s.5-4.6,1.4-6.6c.9-2,2.2-3.8,3.8-5.2,1.6-1.4,3.5-2.6,5.6-3.4,2.2-.8,4.4-1.2,6.9-1.2h4.2c2.4,0,4.7.5,6.9,1.4,2.2.9,4,2.2,5.6,3.8,1.6,1.6,2.9,3.5,3.8,5.6.9,2.2,1.4,4.4,1.4,6.9v.2l-7.2,1.2v-1.8c0-1.4-.3-2.8-.8-4.1-.5-1.3-1.3-2.4-2.2-3.4-.9-.9-2.1-1.7-3.4-2.2-1.3-.5-2.6-.8-4.1-.8h-4.2c-1.4,0-2.8.2-4.1.6-1.3.4-2.4,1.1-3.3,1.9-.9.8-1.7,1.7-2.2,2.9-.5,1.1-.8,2.4-.8,3.9,0,2.1.5,3.8,1.4,5.1.9,1.3,2.2,2.4,3.7,3.3,1.6.9,3.3,1.7,5.3,2.3,2,.6,4,1.2,6.1,1.9,2.1.6,4.1,1.4,6.1,2.2,2,.8,3.8,1.9,5.3,3.2,1.6,1.3,2.8,2.9,3.8,4.9.9,1.9,1.4,4.3,1.4,7.2Z"/>
  <path d="M370.7,68.5c0,2.4-.5,4.7-1.4,6.9-.9,2.2-2.2,4-3.8,5.6-1.6,1.6-3.5,2.9-5.6,3.8-2.2.9-4.4,1.4-6.9,1.4h-4.8c-2.4,0-4.7-.5-6.9-1.4-2.2-.9-4-2.2-5.6-3.8-1.6-1.6-2.9-3.5-3.8-5.6-.9-2.2-1.4-4.4-1.4-6.9v-27.2c0-2.4.5-4.7,1.4-6.9.9-2.2,2.2-4,3.8-5.6,1.6-1.6,3.5-2.9,5.6-3.8,2.2-.9,4.4-1.4,6.9-1.4h4.8c2.4,0,4.7.5,6.9,1.4,2.2.9,4,2.2,5.6,3.8,1.6,1.6,2.9,3.5,3.8,5.6.9,2.2,1.4,4.4,1.4,6.9v27.2ZM363.5,40.9c0-1.4-.3-2.8-.8-4.1-.5-1.3-1.3-2.4-2.2-3.4-.9-.9-2.1-1.7-3.4-2.2-1.3-.5-2.6-.8-4.1-.8h-4.8c-1.4,0-2.8.3-4.1.8-1.3.5-2.4,1.3-3.3,2.2s-1.7,2.1-2.2,3.4c-.5,1.3-.8,2.6-.8,4.1v28c0,1.4.3,2.8.8,4.1.5,1.3,1.3,2.4,2.2,3.3s2,1.7,3.3,2.2c1.3.5,2.7.8,4.1.8h4.8c1.5,0,2.8-.3,4.1-.8,1.3-.5,2.4-1.3,3.4-2.2.9-.9,1.7-2,2.2-3.3.5-1.3.8-2.7.8-4.1v-28Z"/>
  <path d="M308.8,85v-44.1c0-1.4-.3-2.8-.8-4.1-.5-1.3-1.3-2.4-2.2-3.4-.9-.9-2.1-1.7-3.4-2.2-1.3-.5-2.6-.8-4.1-.8h-3.6c-1.4,0-2.8.3-4.1.8-1.3.5-2.4,1.3-3.4,2.2-.9.9-1.7,2.1-2.2,3.4-.5,1.3-.8,2.6-.8,4.1v44.1h-7.2v-44.1c0-1.4-.3-2.8-.8-4.1-.5-1.3-1.3-2.4-2.3-3.4-.9-.9-2.1-1.7-3.4-2.2-1.3-.5-2.6-.8-4.1-.8h-3.6c-1.4,0-2.8.3-4.1.8-1.3.5-2.4,1.3-3.3,2.2-.9.9-1.7,2.1-2.2,3.4-.5,1.3-.8,2.6-.8,4.1v44.1h-7.2V24.8h2.4l3.9,6.1c1.6-2.2,3.7-4,6.2-5.3,2.5-1.3,5.2-2,8.2-2h.6c3.4,0,6.5.8,9.2,2.5,2.7,1.7,4.9,3.9,6.3,6.7.7-1.4,1.7-2.6,2.8-3.8s2.3-2.1,3.6-2.9c1.3-.8,2.8-1.4,4.3-1.9,1.6-.5,3.2-.7,4.9-.7h.6c2.4,0,4.7.5,6.9,1.4,2.2.9,4,2.2,5.6,3.8,1.6,1.6,2.9,3.5,3.8,5.6.9,2.2,1.4,4.4,1.4,6.9v43.7h-7.2Z"/>
  <path d="M230.8,68.5c0,2.4-.5,4.7-1.4,6.9-.9,2.2-2.2,4-3.8,5.6-1.6,1.6-3.5,2.9-5.6,3.8-2.2.9-4.4,1.4-6.9,1.4h-4.8c-2.4,0-4.7-.5-6.9-1.4-2.2-.9-4-2.2-5.6-3.8-1.6-1.6-2.9-3.5-3.8-5.6-.9-2.2-1.4-4.4-1.4-6.9v-27.2c0-2.4.5-4.7,1.4-6.9.9-2.2,2.2-4,3.8-5.6,1.6-1.6,3.5-2.9,5.6-3.8,2.2-.9,4.4-1.4,6.9-1.4h4.8c2.4,0,4.7.5,6.9,1.4,2.2.9,4,2.2,5.6,3.8,1.6,1.6,2.9,3.5,3.8,5.6.9,2.2,1.4,4.4,1.4,6.9v14.2h-33v13.4c0,1.4.3,2.8.8,4.1.5,1.3,1.3,2.4,2.2,3.3.9.9,2,1.7,3.3,2.2,1.3.5,2.7.8,4.1.8h4.8c1.5,0,2.8-.3,4.1-.8,1.3-.5,2.4-1.3,3.4-2.2.9-.9,1.7-2,2.2-3.3.5-1.3.8-2.7.8-4.1v-4l7.2,1.2v2.4ZM223.6,40.9c0-1.4-.3-2.8-.8-4.1-.5-1.3-1.3-2.4-2.2-3.4-.9-.9-2.1-1.7-3.4-2.2-1.3-.5-2.6-.8-4.1-.8h-4.8c-1.4,0-2.8.3-4.1.8-1.3.5-2.4,1.3-3.3,2.2-.9.9-1.7,2.1-2.2,3.4-.5,1.3-.8,2.6-.8,4.1v8.9h25.7v-8.9Z"/>
  <path d="M166.5,85V.7h7.2v84.3h-7.2Z"/>
  <path d="M150.8,68.5c0,2.4-.5,4.7-1.4,6.9-.9,2.2-2.2,4-3.8,5.6-1.6,1.6-3.5,2.9-5.6,3.8-2.2.9-4.4,1.4-6.9,1.4h-4.8c-2.4,0-4.7-.5-6.9-1.4-2.2-.9-4-2.2-5.6-3.8-1.6-1.6-2.9-3.5-3.8-5.6-.9-2.2-1.4-4.4-1.4-6.9V.7h7.2v29.2c1.6-2,3.6-3.5,5.9-4.6,2.3-1.1,4.8-1.6,7.5-1.6h1.8c2.4,0,4.7.5,6.9,1.4,2.2.9,4,2.2,5.6,3.8,1.6,1.6,2.9,3.5,3.8,5.6.9,2.2,1.4,4.4,1.4,6.9v27.2ZM143.5,40.9c0-1.4-.3-2.8-.8-4.1-.5-1.3-1.3-2.4-2.2-3.4-.9-.9-2.1-1.7-3.4-2.2-1.3-.5-2.6-.8-4.1-.8h-4.8c-1.4,0-2.8.3-4.1.8-1.3.5-2.4,1.3-3.3,2.2-.9.9-1.7,2.1-2.2,3.4-.5,1.3-.8,2.6-.8,4.1v28c0,1.4.3,2.8.8,4.1.5,1.3,1.3,2.4,2.2,3.3.9.9,2,1.7,3.3,2.2,1.3.5,2.7.8,4.1.8h4.8c1.4,0,2.8-.3,4.1-.8,1.3-.5,2.4-1.3,3.4-2.2.9-.9,1.7-2,2.2-3.3.5-1.3.8-2.7.8-4.1v-28Z"/>
  <path d="M93.7,85l-4-6c-1.6,2.2-3.7,3.9-6.2,5.2-2.5,1.3-5.2,1.9-8.1,1.9h-1.8c-2.4,0-4.7-.5-6.9-1.4-2.2-.9-4-2.2-5.6-3.8-1.6-1.6-2.9-3.5-3.8-5.6-.9-2.2-1.4-4.4-1.4-6.9v-.6c0-2.4.5-4.7,1.4-6.9.9-2.2,2.2-4,3.8-5.6s3.5-2.9,5.6-3.8c2.2-.9,4.4-1.4,6.9-1.4h15.3v-9.3c0-1.4-.3-2.8-.8-4.1-.5-1.3-1.3-2.4-2.2-3.4-.9-.9-2.1-1.7-3.4-2.2-1.3-.5-2.6-.8-4.1-.8h-4.2c-1.4,0-2.8.3-4.1.8-1.3.5-2.4,1.3-3.3,2.2-.9.9-1.7,2.1-2.2,3.4-.5,1.3-.8,2.6-.8,4.1v2.2l-7.2-1.2v-.6c0-2.4.5-4.7,1.4-6.9.9-2.2,2.2-4,3.8-5.6s3.5-2.9,5.6-3.8c2.2-.9,4.4-1.4,6.9-1.4h4.2c2.4,0,4.7.5,6.9,1.4,2.2.9,4,2.2,5.6,3.8,1.6,1.6,2.9,3.5,3.8,5.6.9,2.2,1.4,4.4,1.4,6.9v43.7h-2.4ZM88.9,55.9h-15.3c-1.5,0-2.8.3-4.1.8-1.3.5-2.4,1.3-3.3,2.3-.9.9-1.7,2.1-2.2,3.4-.5,1.3-.8,2.6-.8,4.1v2.5c0,1.4.3,2.8.8,4.1.5,1.3,1.3,2.4,2.2,3.3.9.9,2,1.7,3.3,2.2,1.3.5,2.7.8,4.1.8h4.8c1.4,0,2.8-.3,4.1-.8,1.3-.5,2.4-1.3,3.4-2.2.9-.9,1.7-2,2.2-3.3.5-1.3.8-2.7.8-4.1v-13Z"/>
  <path d="M34.2,85v-44.1c0-1.4-.3-2.8-.8-4.1-.5-1.3-1.3-2.4-2.2-3.4s-2.1-1.7-3.4-2.2c-1.3-.5-2.6-.8-4.1-.8h-4.8c-1.4,0-2.8.3-4.1.8-1.3.5-2.4,1.3-3.3,2.2s-1.7,2.1-2.2,3.4c-.5,1.3-.8,2.6-.8,4.1v44.1H1.2V.7h7.2v29.2c1.6-2,3.6-3.5,5.9-4.6,2.3-1.1,4.8-1.6,7.5-1.6h1.8c2.4,0,4.7.5,6.9,1.4,2.2.9,4,2.2,5.6,3.8,1.6,1.6,2.9,3.5,3.8,5.6.9,2.2,1.4,4.4,1.4,6.9v43.7h-7.2Z"/>
</svg>